<svg width="200" height="200" viewBox="0 0 200 200" fill="none" xmlns="http://www.w3.org/2000/svg">
<circle cx="100" cy="100" r="100" fill="#F3FDF7"/>
<path d="M99.5 51C80.1294 51 64.3703 66.7591 64.3703 86.1295C64.3703 110.169 95.8079 145.46 97.1464 146.951C98.4036 148.351 100.599 148.348 101.854 146.951C103.192 145.46 134.63 110.169 134.63 86.1295C134.629 66.7591 118.87 51 99.5 51ZM99.5 103.804C89.7541 103.804 81.8255 95.8754 81.8255 86.1295C81.8255 76.3837 89.7543 68.4551 99.5 68.4551C109.246 68.4551 117.174 76.3839 117.174 86.1297C117.174 95.8756 109.246 103.804 99.5 103.804Z" fill="#00D450"/>
</svg>
