<svg width="184" height="43" viewBox="0 0 184 43" fill="none" xmlns="http://www.w3.org/2000/svg">
<g clip-path="url(#clip0)">
<path d="M24 22L42 22" stroke="#03AC0E" stroke-width="3"/>
<path d="M24 22L34 12" stroke="#03AC0E" stroke-width="3"/>
<path d="M24 21L34 31" stroke="#03AC0E" stroke-width="3"/>
<path d="M8 12.7085C11.0104 11.251 18.625 11.0688 25 22" stroke="#03AC0E" stroke-width="3"/>
<path d="M6 28.5C12 31.5 18.5 31.5 25 20" stroke="#03AC0E" stroke-width="3"/>
<rect x="-0.87868" y="21.6369" width="31.8419" height="31.8419" rx="7.5" transform="rotate(-45 -0.87868 21.6369)" stroke="#03AC0E" stroke-width="3"/>
<circle cx="9" cy="18" r="2" fill="#03AC0E"/>
<circle cx="8" cy="18" r="1" fill="white"/>
<path d="M71.5078 12.6035H63.749V34H59.4595V12.6035H51.769V9.11719H71.5078V12.6035ZM70.0552 24.5835C70.0552 22.772 70.4141 21.1427 71.1318 19.6958C71.8496 18.2375 72.8579 17.1209 74.1567 16.3462C75.4556 15.5601 76.9481 15.167 78.6343 15.167C81.1294 15.167 83.1517 15.9702 84.7012 17.5767C86.262 19.1831 87.1051 21.3136 87.2305 23.9683L87.2476 24.9424C87.2476 26.7653 86.8944 28.3945 86.188 29.8301C85.493 31.2656 84.4904 32.3765 83.1802 33.1626C81.8813 33.9487 80.3774 34.3418 78.6685 34.3418C76.0594 34.3418 73.9688 33.4759 72.3965 31.7441C70.8356 30.001 70.0552 27.6825 70.0552 24.7886V24.5835ZM74.208 24.9424C74.208 26.8451 74.6011 28.3376 75.3872 29.4199C76.1733 30.4909 77.2671 31.0264 78.6685 31.0264C80.0698 31.0264 81.1579 30.4795 81.9326 29.3857C82.7188 28.292 83.1118 26.6912 83.1118 24.5835C83.1118 22.715 82.7074 21.2339 81.8984 20.1401C81.1009 19.0464 80.0129 18.4995 78.6343 18.4995C77.2785 18.4995 76.2018 19.0407 75.4043 20.123C74.6068 21.194 74.208 22.8005 74.208 24.9424ZM96.7666 26.0703L94.9209 27.9673V34H90.7681V7.75H94.9209V22.8916L96.2197 21.2681L101.33 15.5088H106.32L99.4497 23.2163L107.055 34H102.252L96.7666 26.0703ZM108.268 24.5835C108.268 22.772 108.627 21.1427 109.345 19.6958C110.062 18.2375 111.071 17.1209 112.37 16.3462C113.668 15.5601 115.161 15.167 116.847 15.167C119.342 15.167 121.365 15.9702 122.914 17.5767C124.475 19.1831 125.318 21.3136 125.443 23.9683L125.46 24.9424C125.46 26.7653 125.107 28.3945 124.401 29.8301C123.706 31.2656 122.703 32.3765 121.393 33.1626C120.094 33.9487 118.59 34.3418 116.881 34.3418C114.272 34.3418 112.182 33.4759 110.609 31.7441C109.049 30.001 108.268 27.6825 108.268 24.7886V24.5835ZM112.421 24.9424C112.421 26.8451 112.814 28.3376 113.6 29.4199C114.386 30.4909 115.48 31.0264 116.881 31.0264C118.283 31.0264 119.371 30.4795 120.146 29.3857C120.932 28.292 121.325 26.6912 121.325 24.5835C121.325 22.715 120.92 21.2339 120.111 20.1401C119.314 19.0464 118.226 18.4995 116.847 18.4995C115.491 18.4995 114.415 19.0407 113.617 20.123C112.82 21.194 112.421 22.8005 112.421 24.9424ZM134.979 26.0703L133.134 27.9673V34H128.981V7.75H133.134V22.8916L134.433 21.2681L139.542 15.5088H144.533L137.663 23.2163L145.268 34H140.465L134.979 26.0703ZM146.481 24.5835C146.481 22.772 146.84 21.1427 147.558 19.6958C148.275 18.2375 149.284 17.1209 150.583 16.3462C151.881 15.5601 153.374 15.167 155.06 15.167C157.555 15.167 159.577 15.9702 161.127 17.5767C162.688 19.1831 163.531 21.3136 163.656 23.9683L163.673 24.9424C163.673 26.7653 163.32 28.3945 162.614 29.8301C161.919 31.2656 160.916 32.3765 159.606 33.1626C158.307 33.9487 156.803 34.3418 155.094 34.3418C152.485 34.3418 150.395 33.4759 148.822 31.7441C147.261 30.001 146.481 27.6825 146.481 24.7886V24.5835ZM150.634 24.9424C150.634 26.8451 151.027 28.3376 151.813 29.4199C152.599 30.4909 153.693 31.0264 155.094 31.0264C156.496 31.0264 157.584 30.4795 158.358 29.3857C159.145 28.292 159.538 26.6912 159.538 24.5835C159.538 22.715 159.133 21.2339 158.324 20.1401C157.527 19.0464 156.439 18.4995 155.06 18.4995C153.704 18.4995 152.628 19.0407 151.83 20.123C151.033 21.194 150.634 22.8005 150.634 24.9424ZM171.603 34H167.45V15.5088H171.603V34ZM167.194 10.7065C167.194 10.0685 167.393 9.53874 167.792 9.11719C168.202 8.69564 168.783 8.48486 169.535 8.48486C170.287 8.48486 170.868 8.69564 171.278 9.11719C171.688 9.53874 171.894 10.0685 171.894 10.7065C171.894 11.3332 171.688 11.8573 171.278 12.2788C170.868 12.689 170.287 12.894 169.535 12.894C168.783 12.894 168.202 12.689 167.792 12.2788C167.393 11.8573 167.194 11.3332 167.194 10.7065Z" fill="#03AC0E"/>
</g>
<defs>
<clipPath id="clip0">
<rect width="184" height="43" fill="white"/>
</clipPath>
</defs>
</svg>
