<svg width="56" height="56" viewBox="0 0 56 56" fill="none" xmlns="http://www.w3.org/2000/svg">
<path d="M28 0C12.5376 0 0 12.5357 0 28C0 43.4643 12.5364 56 28 56C43.4648 56 56 43.4643 56 28C56 12.5357 43.4648 0 28 0ZM28 8.37233C33.1164 8.37233 37.2624 12.5197 37.2624 17.6339C37.2624 22.7493 33.1164 26.8955 28 26.8955C22.8861 26.8955 18.7401 22.7493 18.7401 17.6339C18.7401 12.5197 22.8861 8.37233 28 8.37233ZM27.9938 48.6793C22.891 48.6793 18.2173 46.8208 14.6125 43.7447C13.7343 42.9957 13.2276 41.8973 13.2276 40.7448C13.2276 35.5581 17.4253 31.407 22.613 31.407H33.3894C38.5784 31.407 42.7601 35.5581 42.7601 40.7448C42.7601 41.8985 42.2558 42.9944 41.3764 43.7435C37.7728 46.8208 33.098 48.6793 27.9938 48.6793Z" fill="#24C265"/>
</svg>
